<?xml version="1.0" standalone="no"?>
<svg xmlns="http://www.w3.org/2000/svg" width="24" height="24"><rect width="24" height="24" opacity="0"></rect><g><path d="M3.65 4.44Q2.38 4.44 1.69 5.12Q1.01 5.81 1.01 7.08L1.01 19.8Q1.01 21.07 1.69 21.76Q2.38 22.44 3.65 22.44L20.35 22.44Q21.62 22.44 22.31 21.76Q22.99 21.07 22.99 19.8L22.99 7.08Q22.99 5.81 22.31 5.12Q21.62 4.44 20.35 4.44L3.65 4.44ZM11.95 10.75Q12.36 10.32 12.88 10.08Q13.39 9.84 13.94 9.84Q14.71 9.84 15.35 10.21Q15.98 10.58 16.37 11.22Q16.75 11.86 16.75 12.65Q16.75 13.15 16.64 13.5Q16.54 13.85 16.27 14.28Q15.86 15 14.98 15.95Q14.09 16.9 13.2 17.59Q12.31 18.29 11.95 18.29Q11.57 18.29 10.55 17.48Q9.53 16.68 8.57 15.6Q7.61 14.52 7.34 13.75Q7.15 13.25 7.15 12.65Q7.15 11.45 7.97 10.64Q8.78 9.84 9.96 9.84Q10.51 9.84 11.04 10.08Q11.57 10.32 11.95 10.75Z" fill="rgba(47,98,33,1)"></path><path d="M19.99 3.12Q20.3 3.12 20.83 3.22Q20.45 2.47 19.73 2.02Q19.01 1.56 18.17 1.56L5.83 1.56Q4.99 1.56 4.27 2.02Q3.55 2.47 3.17 3.22Q3.7 3.12 4.01 3.12L19.99 3.12Z" fill="rgba(47,98,33,1)"></path></g></svg>